<?xml version="1.0" encoding="UTF-8" standalone="no"?>
<svg
   xmlns:dc="http://purl.org/dc/elements/1.1/"
   xmlns:cc="http://creativecommons.org/ns#"
   xmlns:rdf="http://www.w3.org/1999/02/22-rdf-syntax-ns#"
   xmlns:svg="http://www.w3.org/2000/svg"
   xmlns="http://www.w3.org/2000/svg"
   xmlns:sodipodi="http://sodipodi.sourceforge.net/DTD/sodipodi-0.dtd"
   xmlns:inkscape="http://www.inkscape.org/namespaces/inkscape"
   width="107.98988mm"
   height="107.9899mm"
   viewBox="0 0 107.98988 107.9899"
   version="1.1"
   id="svg8"
   inkscape:version="1.0.1 (3bc2e813f5, 2020-09-07)"
   sodipodi:docname="educational.svg">
  <defs
     id="defs2" />
  <sodipodi:namedview
     id="base"
     pagecolor="#ffffff"
     bordercolor="#666666"
     borderopacity="1.0"
     inkscape:pageopacity="0.0"
     inkscape:pageshadow="2"
     inkscape:zoom="0.98994949"
     inkscape:cx="-90.926486"
     inkscape:cy="262.78385"
     inkscape:document-units="mm"
     inkscape:current-layer="layer1"
     inkscape:document-rotation="0"
     showgrid="false"
     inkscape:window-width="1920"
     inkscape:window-height="1017"
     inkscape:window-x="-8"
     inkscape:window-y="-8"
     inkscape:window-maximized="1" />
  <metadata
     id="metadata5">
    <rdf:RDF>
      <cc:Work
         rdf:about="">
        <dc:format>image/svg+xml</dc:format>
        <dc:type
           rdf:resource="http://purl.org/dc/dcmitype/StillImage" />
        <dc:title />
      </cc:Work>
    </rdf:RDF>
  </metadata>
  <g
     inkscape:label="Layer 1"
     inkscape:groupmode="layer"
     id="layer1"
     transform="translate(-5.8734507,-3.7352845)">
    <path
       style="fill:#ffffff;fill-opacity:0.399194;stroke:#f9f9f9;stroke-width:0;stroke-opacity:0.6"
       id="path900"
       sodipodi:type="arc"
       sodipodi:cx="69.802399"
       sodipodi:cy="45.251831"
       sodipodi:rx="53.672131"
       sodipodi:ry="53.955612"
       sodipodi:start="2.1437705"
       sodipodi:end="2.1427407"
       sodipodi:open="true"
       sodipodi:arc-type="arc"
       d="M 40.704932,90.590316 A 53.672131,53.955612 0 0 1 24.694631,16.012353 53.672131,53.955612 0 0 1 98.876639,-0.10170953 53.672131,53.955612 0 0 1 114.92514,74.467956 53.672131,53.955612 0 0 1 40.751392,90.620415"
       transform="rotate(10.773716)" />
    <rect
       style="fill:#666666;fill-opacity:0.9;stroke:#f9f9f9;stroke-width:0;stroke-opacity:0.6"
       id="rect835"
       width="49.037323"
       height="77.485123"
       x="44.793949"
       y="6.3022904"
       ry="12.891824"
       transform="rotate(10.773716)" />
    <rect
       style="fill:#999999;fill-opacity:0.9;stroke:#f9f9f9;stroke-width:0;stroke-opacity:0.6"
       id="rect837"
       width="42.52232"
       height="54.617561"
       x="47.864967"
       y="17.042583"
       ry="0.33980688"
       transform="rotate(10.773716)" />
    <rect
       style="fill:#e6e6e6;fill-opacity:0.9;stroke:#f9f9f9;stroke-width:0;stroke-opacity:0.6"
       id="rect839"
       width="13.61501"
       height="1.7008926"
       x="62.800587"
       y="11.350013"
       ry="0.85044628"
       transform="rotate(10.773716)" />
    <rect
       style="fill:#e6e6e6;fill-opacity:0.9;stroke:#f9f9f9;stroke-width:0;stroke-opacity:0.6"
       id="rect839-0"
       width="1.5878822"
       height="1.7008933"
       x="57.638706"
       y="11.320735"
       ry="0.85044664"
       transform="rotate(10.773716)" />
    <path
       style="fill:#e6e6e6;fill-opacity:0.9;stroke:#f9f9f9;stroke-width:0;stroke-opacity:0.6"
       id="path856"
       sodipodi:type="arc"
       sodipodi:cx="69.787575"
       sodipodi:cy="77.707756"
       sodipodi:rx="2.6458333"
       sodipodi:ry="2.6458333"
       sodipodi:start="2.1437705"
       sodipodi:end="2.1427407"
       sodipodi:open="true"
       sodipodi:arc-type="arc"
       d="m 68.35318,79.931029 a 2.6458333,2.6458333 0 0 1 -0.789248,-3.657096 2.6458333,2.6458333 0 0 1 3.656893,-0.790189 2.6458333,2.6458333 0 0 1 0.79113,3.65669 2.6458333,2.6458333 0 0 1 -3.656485,0.792071"
       transform="rotate(10.773716)" />
    <rect
       style="fill:#cccccc;fill-opacity:0.9;stroke:#f9f9f9;stroke-width:0;stroke-opacity:0.6"
       id="rect861"
       width="13.229166"
       height="13.79613"
       x="62.774067"
       y="38.390751"
       ry="3.5201788"
       rx="6.614583"
       transform="rotate(10.773716)" />
    <path
       id="rect858"
       style="fill:#ececec;fill-opacity:1;stroke:#f9f9f9;stroke-width:0;stroke-opacity:0.6"
       d="m 62.162658,48.613442 8.767769,7.592451 c 0.239194,0.20713 0.170473,0.441651 -0.154082,0.525832 l -10.41157,2.700556 c -0.324556,0.08417 -0.778398,-0.01479 -1.017591,-0.221935 L 50.57942,51.617901 c -0.239194,-0.20713 -0.170474,-0.441651 0.154072,-0.525836 L 61.145064,48.39151 c 0.324554,-0.08417 0.778397,0.01479 1.017591,0.221935 z" />
    <path
       id="rect863"
       style="fill:#f2f2f2;fill-opacity:0.9;stroke:#f9f9f9;stroke-width:0;stroke-opacity:0.6"
       d="m 52.570187,59.543181 -0.593477,3.11904 c -0.364549,1.915804 2.240069,4.009613 5.839956,4.694618 3.599891,0.684957 6.791473,-0.305877 7.156022,-2.221681 l 0.593477,-3.119039 c -0.364548,1.915803 -3.556139,2.906683 -7.156021,2.22168 -3.599896,-0.684957 -6.204505,-2.778814 -5.839957,-4.694618 z" />
    <rect
       style="fill:#f9f9f9;fill-opacity:0.9;stroke:#f9f9f9;stroke-width:0;stroke-opacity:0.6"
       id="rect870"
       width="7.7047319"
       height="0.89627379"
       x="-35.595062"
       y="-65.791359"
       ry="0.18111834"
       transform="matrix(0.16326486,-0.98658227,-0.90430833,-0.42687989,0,0)"
       rx="0" />
    <rect
       style="fill:#f9f9f9;fill-opacity:0.9;stroke:#f9f9f9;stroke-width:0;stroke-opacity:0.6"
       id="rect870-0"
       width="6.5389757"
       height="0.9367305"
       x="-10.728137"
       y="81.785286"
       ry="0.18322478"
       transform="matrix(0.91750202,-0.39773112,0.78222802,0.62299224,0,0)" />
    <rect
       style="fill:#c8beb7;fill-opacity:0.9;stroke:#f9f9f9;stroke-width:0;stroke-opacity:0.6"
       id="rect898"
       width="1.3864607"
       height="1.6370258"
       x="63.42725"
       y="50.708111"
       ry="0.339807"
       transform="rotate(10.773716)" />
    <path
       sodipodi:type="star"
       style="fill:#ececec;fill-opacity:0.35;stroke:#f9f9f9;stroke-width:0;stroke-opacity:0.6"
       id="path842"
       sodipodi:sides="5"
       sodipodi:cx="49.130451"
       sodipodi:cy="43.117847"
       sodipodi:r1="2.5512609"
       sodipodi:r2="1.0536541"
       sodipodi:arg1="0.45727827"
       sodipodi:arg2="0.92520348"
       inkscape:flatsided="false"
       inkscape:rounded="0"
       inkscape:randomized="0"
       d="m 51.419589,44.244249 -1.655184,-0.284803 -0.997842,1.683578 -0.240617,-1.662182 -1.909528,-0.428751 1.506474,-0.742483 -0.18231,-1.94856 1.171669,1.203303 1.796854,-0.775526 -0.782343,1.486165 z"
       inkscape:transform-center-x="0.083655256"
       inkscape:transform-center-y="-0.34452375"
       transform="rotate(10.794862,60.113055,57.502405)" />
    <path
       sodipodi:type="star"
       style="fill:#ececec;fill-opacity:0.35;stroke:#f9f9f9;stroke-width:0;stroke-opacity:0.6"
       id="path842-4"
       sodipodi:sides="5"
       sodipodi:cx="64.477715"
       sodipodi:cy="43.288593"
       sodipodi:r1="2.5512609"
       sodipodi:r2="1.0536541"
       sodipodi:arg1="0.45727827"
       sodipodi:arg2="0.92520348"
       inkscape:flatsided="false"
       inkscape:rounded="0"
       inkscape:randomized="0"
       d="m 66.766853,44.414995 -1.655184,-0.284803 -0.997843,1.683578 -0.240617,-1.662182 -1.909528,-0.428751 1.506474,-0.742483 -0.18231,-1.94856 1.171669,1.203302 1.796854,-0.775525 -0.782343,1.486164 z"
       inkscape:transform-center-x="0.1508124"
       inkscape:transform-center-y="-0.40236589"
       transform="matrix(0.57281341,-0.50642843,0.55881473,0.54851906,8.2738236,56.314142)" />
    <path
       sodipodi:type="star"
       style="fill:#ececec;fill-opacity:0.35;stroke:#f9f9f9;stroke-width:0;stroke-opacity:0.6"
       id="path862"
       sodipodi:sides="5"
       sodipodi:cx="63.042347"
       sodipodi:cy="40.398975"
       sodipodi:r1="3.1283095"
       sodipodi:r2="1.29197"
       sodipodi:arg1="-0.43662716"
       sodipodi:arg2="0.19169137"
       inkscape:flatsided="false"
       inkscape:rounded="0"
       inkscape:randomized="0"
       d="m 65.877168,39.076059 -1.566516,1.569062 0.865871,2.041126 -1.976346,-1.004978 -1.673658,1.454235 0.345067,-2.190173 -1.900249,-1.14236 2.18961,-0.348623 0.499239,-2.160252 1.008187,1.974712 z"
       inkscape:transform-center-x="-0.063695487"
       inkscape:transform-center-y="-0.23749969"
       transform="rotate(10.794862,60.113055,57.502405)" />
    <path
       sodipodi:type="star"
       style="fill:#ececec;fill-opacity:0.35;stroke:#f9f9f9;stroke-width:0;stroke-opacity:0.6"
       id="path864"
       sodipodi:sides="5"
       sodipodi:cx="75.043091"
       sodipodi:cy="62.510578"
       sodipodi:r1="2.9109688"
       sodipodi:r2="1.2022098"
       sodipodi:arg1="0.22923193"
       sodipodi:arg2="0.85755046"
       inkscape:flatsided="false"
       inkscape:rounded="0"
       inkscape:randomized="0"
       d="m 77.877912,63.172036 -2.048225,0.247704 -0.539672,1.991315 -0.868517,-1.871433 -2.060621,0.102091 1.511452,-1.404313 -0.733861,-1.928219 1.802645,1.00352 1.60707,-1.293796 -0.397356,2.024522 z"
       inkscape:transform-center-x="0.092917767"
       inkscape:transform-center-y="0.18811585"
       transform="rotate(10.794862,60.113055,57.502405)" />
    <path
       sodipodi:type="star"
       style="fill:#ececec;fill-opacity:0.35;stroke:#f9f9f9;stroke-width:0;stroke-opacity:0.6"
       id="path866"
       sodipodi:sides="5"
       sodipodi:cx="49.529701"
       sodipodi:cy="69.597633"
       sodipodi:r1="3.3408692"
       sodipodi:r2="1.3797556"
       sodipodi:arg1="2.6399886"
       sodipodi:arg2="3.2683071"
       inkscape:flatsided="false"
       inkscape:rounded="0"
       inkscape:randomized="0"
       d="m 46.600386,71.204032 1.560622,-1.780766 -1.064291,-2.115173 2.175868,0.933953 1.682765,-1.665825 -0.215862,2.357981 2.104297,1.085636 -2.309278,0.523359 -0.382238,2.336786 -1.211351,-2.034527 z"
       inkscape:transform-center-x="0.00099272159"
       inkscape:transform-center-y="0.31807992"
       transform="rotate(10.794862,60.113055,57.502405)" />
    <path
       sodipodi:type="star"
       style="fill:#ececec;fill-opacity:0.35;stroke:#f9f9f9;stroke-width:0;stroke-opacity:0.6"
       id="path868"
       sodipodi:sides="5"
       sodipodi:cx="26.756636"
       sodipodi:cy="50.32085"
       sodipodi:r1="5.3869896"
       sodipodi:r2="2.2247889"
       sodipodi:arg1="-2.7643436"
       sodipodi:arg2="-2.1360251"
       inkscape:flatsided="false"
       inkscape:rounded="0"
       inkscape:randomized="0"
       d="m 21.748451,48.336475 3.816568,0.105617 1.531255,-3.497514 1.078938,3.662409 3.799516,0.375519 -3.149747,2.157877 0.816975,3.729597 -3.025589,-2.328767 -3.294598,1.929498 1.279831,-3.597134 z"
       inkscape:transform-center-x="-0.41425805"
       inkscape:transform-center-y="-0.10424668"
       transform="rotate(10.794862,60.113055,57.502405)" />
    <path
       sodipodi:type="star"
       style="fill:#ececec;fill-opacity:0.35;stroke:#f9f9f9;stroke-width:0;stroke-opacity:0.6"
       id="path870"
       sodipodi:sides="5"
       sodipodi:cx="94.319878"
       sodipodi:cy="28.681711"
       sodipodi:r1="4.6791253"
       sodipodi:r2="1.932446"
       sodipodi:arg1="-2.3847581"
       sodipodi:arg2="-1.7564396"
       inkscape:flatsided="false"
       inkscape:rounded="0"
       inkscape:randomized="0"
       d="m 90.918092,25.468913 3.045097,1.313556 2.361031,-2.328857 -0.308279,3.30197 2.944474,1.525818 -3.235624,0.727174 -0.541246,3.271864 -1.691447,-2.852551 -3.278982,0.496305 2.190252,-2.490148 z"
       inkscape:transform-center-x="0.0039955236"
       inkscape:transform-center-y="0.44301558"
       transform="rotate(10.794862,60.113055,57.502405)" />
    <path
       sodipodi:type="star"
       style="fill:#ececec;fill-opacity:0.35;stroke:#f9f9f9;stroke-width:0;stroke-opacity:0.6"
       id="path872"
       sodipodi:sides="5"
       sodipodi:cx="30.462248"
       sodipodi:cy="23.7805"
       sodipodi:r1="10.643906"
       sodipodi:r2="4.3958588"
       sodipodi:arg1="-2.2494588"
       sodipodi:arg2="-1.6211403"
       inkscape:flatsided="false"
       inkscape:rounded="0"
       inkscape:randomized="0"
       d="m 23.78051,15.495145 6.460526,3.895066 6.036282,-4.524736 -1.708015,7.347967 6.168594,4.342625 -7.516138,0.646227 -2.223881,7.208626 -2.937214,-6.948576 -7.543028,0.112551 5.700841,-4.940684 z"
       inkscape:transform-center-x="0.452665"
       inkscape:transform-center-y="0.57622086"
       transform="rotate(10.794862,60.113055,57.502405)" />
    <path
       sodipodi:type="star"
       style="fill:#ececec;fill-opacity:0.35;stroke:#f9f9f9;stroke-width:0;stroke-opacity:0.6"
       id="path880"
       sodipodi:sides="5"
       sodipodi:cx="41.954838"
       sodipodi:cy="39.014862"
       sodipodi:r1="4.0709281"
       sodipodi:r2="1.6812648"
       sodipodi:arg1="2.7367009"
       sodipodi:arg2="3.3650194"
       inkscape:flatsided="false"
       inkscape:rounded="0"
       inkscape:randomized="0"
       d="m 38.213064,40.618479 2.102299,-1.976139 -1.041927,-2.690571 2.529066,1.388744 2.236912,-1.822364 -0.53925,2.83443 2.424414,1.564289 -2.86234,0.36303 -0.738541,2.789147 -1.229774,-2.610065 z"
       inkscape:transform-center-x="0.1226768"
       inkscape:transform-center-y="0.27021341"
       transform="rotate(10.794862,60.113055,57.502405)" />
    <path
       sodipodi:type="star"
       style="fill:#ececec;fill-opacity:0.35;stroke:#f9f9f9;stroke-width:0;stroke-opacity:0.6"
       id="path882"
       sodipodi:sides="5"
       sodipodi:cx="83.737633"
       sodipodi:cy="21.895945"
       sodipodi:r1="19.357086"
       sodipodi:r2="7.9943409"
       sodipodi:arg1="0.077296122"
       sodipodi:arg2="0.70561465"
       inkscape:flatsided="false"
       inkscape:rounded="0"
       inkscape:randomized="0"
       d="M 103.03692,23.390683 89.82303,27.080289 88.27986,40.712558 80.687519,29.285552 67.245595,32.030513 75.767162,21.278628 69.002765,9.3428387 81.861725,14.124815 91.123021,4.0031299 90.548729,17.710439 Z"
       inkscape:transform-center-x="-0.28974099"
       inkscape:transform-center-y="1.5707065"
       transform="rotate(10.794862,60.113055,57.502405)" />
    <path
       sodipodi:type="star"
       style="fill:#ececec;fill-opacity:0.35;stroke:#f9f9f9;stroke-width:0;stroke-opacity:0.6"
       id="path884"
       sodipodi:sides="5"
       sodipodi:cx="88.192467"
       sodipodi:cy="47.032948"
       sodipodi:r1="8.88445"
       sodipodi:r2="3.6692159"
       sodipodi:arg1="3.020969"
       sodipodi:arg2="3.6492875"
       inkscape:flatsided="false"
       inkscape:rounded="0"
       inkscape:randomized="0"
       d="m 79.372573,48.102025 5.613485,-2.852919 -0.535842,-6.274013 4.44795,4.457142 5.801356,-2.448393 -2.864501,5.607584 4.121278,4.760823 -6.218309,-0.991464 -3.254267,5.390743 -0.978625,-6.220342 z"
       inkscape:transform-center-x="0.66959334"
       inkscape:transform-center-y="-0.18595047"
       transform="rotate(10.794862,60.113055,57.502405)" />
    <path
       sodipodi:type="star"
       style="fill:#ececec;fill-opacity:0.35;stroke:#f9f9f9;stroke-width:0;stroke-opacity:0.6"
       id="path888"
       sodipodi:sides="5"
       sodipodi:cx="100.2196"
       sodipodi:cy="61.732769"
       sodipodi:r1="5.8677678"
       sodipodi:r2="2.4233472"
       sodipodi:arg1="-2.6167969"
       sodipodi:arg2="-1.9884784"
       inkscape:flatsided="false"
       inkscape:rounded="0"
       inkscape:randomized="0"
       d="m 95.141476,58.792805 4.095107,0.724948 2.209857,-3.523063 0.57599,4.1187 4.03352,1.013016 -3.73912,1.820548 0.28298,4.149141 -2.886892,-2.993539 -3.858619,1.551294 1.954925,-3.670657 z"
       inkscape:transform-center-x="-0.41209883"
       inkscape:transform-center-y="0.15372799"
       transform="rotate(10.794862,60.113055,57.502405)" />
    <path
       sodipodi:type="star"
       style="fill:#ececec;fill-opacity:0.35;stroke:#f9f9f9;stroke-width:0;stroke-opacity:0.6"
       id="path890"
       sodipodi:sides="5"
       sodipodi:cx="87.123383"
       sodipodi:cy="66.543625"
       sodipodi:r1="5.9343462"
       sodipodi:r2="2.4508436"
       sodipodi:arg1="-2.1962814"
       sodipodi:arg2="-1.5679628"
       inkscape:flatsided="false"
       inkscape:rounded="0"
       inkscape:randomized="0"
       d="m 83.648879,61.732774 3.481448,2.360017 3.494766,-2.34025 -1.168683,4.040339 3.305653,2.600543 -4.203735,0.13705 -1.45176,3.947474 -1.429368,-3.955638 -4.202889,-0.160869 3.320336,-2.581769 z"
       inkscape:transform-center-x="0.34856465"
       inkscape:transform-center-y="0.2248442"
       transform="rotate(10.794862,60.113055,57.502405)" />
    <path
       sodipodi:type="star"
       style="fill:#ececec;fill-opacity:0.35;stroke:#f9f9f9;stroke-width:0;stroke-opacity:0.6"
       id="path892"
       sodipodi:sides="5"
       sodipodi:cx="36.074905"
       sodipodi:cy="56.654648"
       sodipodi:r1="6.6172824"
       sodipodi:r2="2.7328911"
       sodipodi:arg1="0.75683451"
       sodipodi:arg2="1.385153"
       inkscape:flatsided="false"
       inkscape:rounded="0"
       inkscape:randomized="0"
       d="m 40.885757,61.19823 -4.306418,-1.857648 -3.339002,3.293501 0.435972,-4.669691 -4.164114,-2.157832 4.575863,-1.028379 0.765437,-4.627116 2.392067,4.034118 4.637181,-0.701883 -3.097484,3.521602 z"
       inkscape:transform-center-x="0.37743687"
       inkscape:transform-center-y="-0.26207411" />
  </g>
</svg>
